<svg width="11326" height="81" viewBox="0 0 11326 81" fill="none" xmlns="http://www.w3.org/2000/svg">
<path d="M6062.77 46.1233C6050.78 55.3264 6038.37 65.5048 6015.65 65.085C5998.63 64.7718 5984.83 51.29 5984.83 34.2722C5984.83 17.2545 5998.63 3.45625 6015.65 3.45625C6022.7 3.45625 6029.2 5.82647 6034.39 9.81126C6016.76 -8.67574 5975.31 -0.757815 5970.61 31.2045C5965.03 69.1311 5998.79 85.968 6027.64 78.9575C6062.91 70.3841 6078.25 31.7599 6106.55 24.9302C6087.87 26.7418 6082.13 31.2691 6062.77 46.1233Z" fill="#1D2345"/>
<path d="M6058.98 34.3886C6070.97 25.1854 6083.38 15.0071 6106.1 15.4269C6123.12 15.7401 6136.92 29.2219 6136.92 46.2397C6136.92 63.2574 6123.12 77.0524 6106.1 77.0524C6099.05 77.0524 6092.55 74.6822 6087.36 70.6974C6104.99 89.1844 6146.44 81.2697 6151.14 49.3074C6156.72 11.384 6122.96 -5.45615 6094.11 1.55438C6058.84 10.1278 6043.5 48.7519 6015.19 55.5816C6033.88 53.7701 6039.62 49.2428 6058.98 34.3886Z" fill="#C60038"/>
<path d="M2082.77 46.1233C2070.78 55.3264 2058.37 65.5048 2035.65 65.085C2018.63 64.7718 2004.83 51.29 2004.83 34.2722C2004.83 17.2545 2018.63 3.45625 2035.65 3.45625C2042.7 3.45625 2049.2 5.82647 2054.39 9.81126C2036.76 -8.67574 1995.31 -0.757815 1990.61 31.2045C1985.03 69.1311 2018.79 85.968 2047.64 78.9575C2082.91 70.3841 2098.25 31.7599 2126.55 24.9302C2107.87 26.7418 2102.13 31.2691 2082.77 46.1233Z" fill="#1D2345"/>
<path d="M2078.98 34.3886C2090.97 25.1854 2103.38 15.0071 2126.1 15.4269C2143.12 15.7401 2156.92 29.2219 2156.92 46.2397C2156.92 63.2574 2143.12 77.0524 2126.1 77.0524C2119.05 77.0524 2112.55 74.6822 2107.36 70.6974C2124.99 89.1844 2166.44 81.2697 2171.14 49.3074C2176.72 11.384 2142.96 -5.45615 2114.11 1.55438C2078.84 10.1278 2063.5 48.7519 2035.19 55.5816C2053.88 53.7701 2059.62 49.2428 2078.98 34.3886Z" fill="#C60038"/>
<path d="M4072.77 46.1233C4060.78 55.3264 4048.37 65.5048 4025.65 65.085C4008.63 64.7718 3994.83 51.29 3994.83 34.2722C3994.83 17.2545 4008.63 3.45625 4025.65 3.45625C4032.7 3.45625 4039.2 5.82647 4044.39 9.81126C4026.76 -8.67574 3985.31 -0.757815 3980.61 31.2045C3975.03 69.1311 4008.79 85.968 4037.64 78.9575C4072.91 70.3841 4088.25 31.7599 4116.55 24.9302C4097.87 26.7418 4092.13 31.2691 4072.77 46.1233Z" fill="#1D2345"/>
<path d="M4068.98 34.3886C4080.97 25.1854 4093.38 15.0071 4116.1 15.4269C4133.12 15.7401 4146.92 29.2219 4146.92 46.2397C4146.92 63.2574 4133.12 77.0524 4116.1 77.0524C4109.05 77.0524 4102.55 74.6822 4097.36 70.6974C4114.99 89.1844 4156.44 81.2697 4161.14 49.3074C4166.72 11.384 4132.96 -5.45615 4104.11 1.55438C4068.84 10.1278 4053.5 48.7519 4025.19 55.5816C4043.88 53.7701 4049.62 49.2428 4068.98 34.3886Z" fill="#C60038"/>
<path d="M92.7735 46.1233C80.7836 55.3264 68.3739 65.5048 45.647 65.085C28.6325 64.7718 14.8342 51.29 14.8342 34.2722C14.8342 17.2545 28.6293 3.45625 45.647 3.45625C52.6995 3.45625 59.1966 5.82647 64.3891 9.81126C46.761 -8.67574 5.31141 -0.757815 0.609738 31.2045C-4.96704 69.1311 28.7939 85.968 57.6369 78.9575C92.9124 70.3841 108.251 31.7599 136.555 24.9302C117.871 26.7418 112.126 31.2691 92.7735 46.1233Z" fill="#1D2345"/>
<path d="M88.9764 34.3886C100.966 25.1854 113.376 15.0071 136.103 15.4269C153.117 15.7401 166.916 29.2219 166.916 46.2397C166.916 63.2574 153.121 77.0524 136.103 77.0524C129.05 77.0524 122.553 74.6822 117.361 70.6974C134.989 89.1844 176.439 81.2697 181.14 49.3074C186.717 11.384 152.956 -5.45615 124.113 1.55438C88.8376 10.1278 73.499 48.7519 45.1953 55.5816C63.8793 53.7701 69.624 49.2428 88.9764 34.3886Z" fill="#C60038"/>
<path d="M6261.77 46.1233C6249.78 55.3264 6237.37 65.5048 6214.65 65.085C6197.63 64.7718 6183.83 51.29 6183.83 34.2722C6183.83 17.2545 6197.63 3.45625 6214.65 3.45625C6221.7 3.45625 6228.2 5.82647 6233.39 9.81126C6215.76 -8.67574 6174.31 -0.757815 6169.61 31.2045C6164.03 69.1311 6197.79 85.968 6226.64 78.9575C6261.91 70.3841 6277.25 31.7599 6305.55 24.9302C6286.87 26.7418 6281.13 31.2691 6261.77 46.1233Z" fill="#1D2345"/>
<path d="M6257.98 34.3886C6269.97 25.1854 6282.38 15.0071 6305.1 15.4269C6322.12 15.7401 6335.92 29.2219 6335.92 46.2397C6335.92 63.2574 6322.12 77.0524 6305.1 77.0524C6298.05 77.0524 6291.55 74.6822 6286.36 70.6974C6303.99 89.1844 6345.44 81.2697 6350.14 49.3074C6355.72 11.384 6321.96 -5.45615 6293.11 1.55438C6257.84 10.1278 6242.5 48.7519 6214.19 55.5816C6232.88 53.7701 6238.62 49.2428 6257.98 34.3886Z" fill="#C60038"/>
<path d="M2281.77 46.1233C2269.78 55.3264 2257.37 65.5048 2234.65 65.085C2217.63 64.7718 2203.83 51.29 2203.83 34.2722C2203.83 17.2545 2217.63 3.45625 2234.65 3.45625C2241.7 3.45625 2248.2 5.82647 2253.39 9.81126C2235.76 -8.67574 2194.31 -0.757815 2189.61 31.2045C2184.03 69.1311 2217.79 85.968 2246.64 78.9575C2281.91 70.3841 2297.25 31.7599 2325.55 24.9302C2306.87 26.7418 2301.13 31.2691 2281.77 46.1233Z" fill="#1D2345"/>
<path d="M2277.98 34.3886C2289.97 25.1854 2302.38 15.0071 2325.1 15.4269C2342.12 15.7401 2355.92 29.2219 2355.92 46.2397C2355.92 63.2574 2342.12 77.0524 2325.1 77.0524C2318.05 77.0524 2311.55 74.6822 2306.36 70.6974C2323.99 89.1844 2365.44 81.2697 2370.14 49.3074C2375.72 11.384 2341.96 -5.45615 2313.11 1.55438C2277.84 10.1278 2262.5 48.7519 2234.19 55.5816C2252.88 53.7701 2258.62 49.2428 2277.98 34.3886Z" fill="#C60038"/>
<path d="M4271.77 46.1233C4259.78 55.3264 4247.37 65.5048 4224.65 65.085C4207.63 64.7718 4193.83 51.29 4193.83 34.2722C4193.83 17.2545 4207.63 3.45625 4224.65 3.45625C4231.7 3.45625 4238.2 5.82647 4243.39 9.81126C4225.76 -8.67574 4184.31 -0.757815 4179.61 31.2045C4174.03 69.1311 4207.79 85.968 4236.64 78.9575C4271.91 70.3841 4287.25 31.7599 4315.55 24.9302C4296.87 26.7418 4291.13 31.2691 4271.77 46.1233Z" fill="#1D2345"/>
<path d="M4267.98 34.3886C4279.97 25.1854 4292.38 15.0071 4315.1 15.4269C4332.12 15.7401 4345.92 29.2219 4345.92 46.2397C4345.92 63.2574 4332.12 77.0524 4315.1 77.0524C4308.05 77.0524 4301.55 74.6822 4296.36 70.6974C4313.99 89.1844 4355.44 81.2697 4360.14 49.3074C4365.72 11.384 4331.96 -5.45615 4303.11 1.55438C4267.84 10.1278 4252.5 48.7519 4224.19 55.5816C4242.88 53.7701 4248.62 49.2428 4267.98 34.3886Z" fill="#C60038"/>
<path d="M291.774 46.1233C279.784 55.3264 267.374 65.5048 244.647 65.085C227.632 64.7718 213.834 51.29 213.834 34.2722C213.834 17.2545 227.629 3.45625 244.647 3.45625C251.699 3.45625 258.197 5.82647 263.389 9.81126C245.761 -8.67574 204.311 -0.757815 199.61 31.2045C194.033 69.1311 227.794 85.968 256.637 78.9575C291.912 70.3841 307.251 31.7599 335.555 24.9302C316.871 26.7418 311.126 31.2691 291.774 46.1233Z" fill="#1D2345"/>
<path d="M287.976 34.3886C299.966 25.1854 312.376 15.0071 335.103 15.4269C352.117 15.7401 365.916 29.2219 365.916 46.2397C365.916 63.2574 352.121 77.0524 335.103 77.0524C328.05 77.0524 321.553 74.6822 316.361 70.6974C333.989 89.1844 375.439 81.2697 380.14 49.3074C385.717 11.384 351.956 -5.45615 323.113 1.55438C287.838 10.1278 272.499 48.7519 244.195 55.5816C262.879 53.7701 268.624 49.2428 287.976 34.3886Z" fill="#C60038"/>
<path d="M6460.77 46.1233C6448.78 55.3264 6436.37 65.5048 6413.65 65.085C6396.63 64.7718 6382.83 51.29 6382.83 34.2722C6382.83 17.2545 6396.63 3.45625 6413.65 3.45625C6420.7 3.45625 6427.2 5.82647 6432.39 9.81126C6414.76 -8.67574 6373.31 -0.757815 6368.61 31.2045C6363.03 69.1311 6396.79 85.968 6425.64 78.9575C6460.91 70.3841 6476.25 31.7599 6504.55 24.9302C6485.87 26.7418 6480.13 31.2691 6460.77 46.1233Z" fill="#1D2345"/>
<path d="M6456.98 34.3886C6468.97 25.1854 6481.38 15.0071 6504.1 15.4269C6521.12 15.7401 6534.92 29.2219 6534.92 46.2397C6534.92 63.2574 6521.12 77.0524 6504.1 77.0524C6497.05 77.0524 6490.55 74.6822 6485.36 70.6974C6502.99 89.1844 6544.44 81.2697 6549.14 49.3074C6554.72 11.384 6520.96 -5.45615 6492.11 1.55438C6456.84 10.1278 6441.5 48.7519 6413.19 55.5816C6431.88 53.7701 6437.62 49.2428 6456.98 34.3886Z" fill="#C60038"/>
<path d="M2480.77 46.1233C2468.78 55.3264 2456.37 65.5048 2433.65 65.085C2416.63 64.7718 2402.83 51.29 2402.83 34.2722C2402.83 17.2545 2416.63 3.45625 2433.65 3.45625C2440.7 3.45625 2447.2 5.82647 2452.39 9.81126C2434.76 -8.67574 2393.31 -0.757815 2388.61 31.2045C2383.03 69.1311 2416.79 85.968 2445.64 78.9575C2480.91 70.3841 2496.25 31.7599 2524.55 24.9302C2505.87 26.7418 2500.13 31.2691 2480.77 46.1233Z" fill="#1D2345"/>
<path d="M2476.98 34.3886C2488.97 25.1854 2501.38 15.0071 2524.1 15.4269C2541.12 15.7401 2554.92 29.2219 2554.92 46.2397C2554.92 63.2574 2541.12 77.0524 2524.1 77.0524C2517.05 77.0524 2510.55 74.6822 2505.36 70.6974C2522.99 89.1844 2564.44 81.2697 2569.14 49.3074C2574.72 11.384 2540.96 -5.45615 2512.11 1.55438C2476.84 10.1278 2461.5 48.7519 2433.19 55.5816C2451.88 53.7701 2457.62 49.2428 2476.98 34.3886Z" fill="#C60038"/>
<path d="M4470.77 46.1233C4458.78 55.3264 4446.37 65.5048 4423.65 65.085C4406.63 64.7718 4392.83 51.29 4392.83 34.2722C4392.83 17.2545 4406.63 3.45625 4423.65 3.45625C4430.7 3.45625 4437.2 5.82647 4442.39 9.81126C4424.76 -8.67574 4383.31 -0.757815 4378.61 31.2045C4373.03 69.1311 4406.79 85.968 4435.64 78.9575C4470.91 70.3841 4486.25 31.7599 4514.55 24.9302C4495.87 26.7418 4490.13 31.2691 4470.77 46.1233Z" fill="#1D2345"/>
<path d="M4466.98 34.3886C4478.97 25.1854 4491.38 15.0071 4514.1 15.4269C4531.12 15.7401 4544.92 29.2219 4544.92 46.2397C4544.92 63.2574 4531.12 77.0524 4514.1 77.0524C4507.05 77.0524 4500.55 74.6822 4495.36 70.6974C4512.99 89.1844 4554.44 81.2697 4559.14 49.3074C4564.72 11.384 4530.96 -5.45615 4502.11 1.55438C4466.84 10.1278 4451.5 48.7519 4423.19 55.5816C4441.88 53.7701 4447.62 49.2428 4466.98 34.3886Z" fill="#C60038"/>
<path d="M490.774 46.1233C478.784 55.3264 466.374 65.5048 443.647 65.085C426.632 64.7718 412.834 51.29 412.834 34.2722C412.834 17.2545 426.629 3.45625 443.647 3.45625C450.699 3.45625 457.197 5.82647 462.389 9.81126C444.761 -8.67574 403.311 -0.757815 398.61 31.2045C393.033 69.1311 426.794 85.968 455.637 78.9575C490.912 70.3841 506.251 31.7599 534.555 24.9302C515.871 26.7418 510.126 31.2691 490.774 46.1233Z" fill="#1D2345"/>
<path d="M486.976 34.3886C498.966 25.1854 511.376 15.0071 534.103 15.4269C551.117 15.7401 564.916 29.2219 564.916 46.2397C564.916 63.2574 551.121 77.0524 534.103 77.0524C527.05 77.0524 520.553 74.6822 515.361 70.6974C532.989 89.1844 574.439 81.2697 579.14 49.3074C584.717 11.384 550.956 -5.45615 522.113 1.55438C486.838 10.1278 471.499 48.7519 443.195 55.5816C461.879 53.7701 467.624 49.2428 486.976 34.3886Z" fill="#C60038"/>
<path d="M6659.77 46.1233C6647.78 55.3264 6635.37 65.5048 6612.65 65.085C6595.63 64.7718 6581.83 51.29 6581.83 34.2722C6581.83 17.2545 6595.63 3.45625 6612.65 3.45625C6619.7 3.45625 6626.2 5.82647 6631.39 9.81126C6613.76 -8.67574 6572.31 -0.757815 6567.61 31.2045C6562.03 69.1311 6595.79 85.968 6624.64 78.9575C6659.91 70.3841 6675.25 31.7599 6703.55 24.9302C6684.87 26.7418 6679.13 31.2691 6659.77 46.1233Z" fill="#1D2345"/>
<path d="M6655.98 34.3886C6667.97 25.1854 6680.38 15.0071 6703.1 15.4269C6720.12 15.7401 6733.92 29.2219 6733.92 46.2397C6733.92 63.2574 6720.12 77.0524 6703.1 77.0524C6696.05 77.0524 6689.55 74.6822 6684.36 70.6974C6701.99 89.1844 6743.44 81.2697 6748.14 49.3074C6753.72 11.384 6719.96 -5.45615 6691.11 1.55438C6655.84 10.1278 6640.5 48.7519 6612.19 55.5816C6630.88 53.7701 6636.62 49.2428 6655.98 34.3886Z" fill="#C60038"/>
<path d="M2679.77 46.1233C2667.78 55.3264 2655.37 65.5048 2632.65 65.085C2615.63 64.7718 2601.83 51.29 2601.83 34.2722C2601.83 17.2545 2615.63 3.45625 2632.65 3.45625C2639.7 3.45625 2646.2 5.82647 2651.39 9.81126C2633.76 -8.67574 2592.31 -0.757815 2587.61 31.2045C2582.03 69.1311 2615.79 85.968 2644.64 78.9575C2679.91 70.3841 2695.25 31.7599 2723.55 24.9302C2704.87 26.7418 2699.13 31.2691 2679.77 46.1233Z" fill="#1D2345"/>
<path d="M2675.98 34.3886C2687.97 25.1854 2700.38 15.0071 2723.1 15.4269C2740.12 15.7401 2753.92 29.2219 2753.92 46.2397C2753.92 63.2574 2740.12 77.0524 2723.1 77.0524C2716.05 77.0524 2709.55 74.6822 2704.36 70.6974C2721.99 89.1844 2763.44 81.2697 2768.14 49.3074C2773.72 11.384 2739.96 -5.45615 2711.11 1.55438C2675.84 10.1278 2660.5 48.7519 2632.19 55.5816C2650.88 53.7701 2656.62 49.2428 2675.98 34.3886Z" fill="#C60038"/>
<path d="M4669.77 46.1233C4657.78 55.3264 4645.37 65.5048 4622.65 65.085C4605.63 64.7718 4591.83 51.29 4591.83 34.2722C4591.83 17.2545 4605.63 3.45625 4622.65 3.45625C4629.7 3.45625 4636.2 5.82647 4641.39 9.81126C4623.76 -8.67574 4582.31 -0.757815 4577.61 31.2045C4572.03 69.1311 4605.79 85.968 4634.64 78.9575C4669.91 70.3841 4685.25 31.7599 4713.55 24.9302C4694.87 26.7418 4689.13 31.2691 4669.77 46.1233Z" fill="#1D2345"/>
<path d="M4665.98 34.3886C4677.97 25.1854 4690.38 15.0071 4713.1 15.4269C4730.12 15.7401 4743.92 29.2219 4743.92 46.2397C4743.92 63.2574 4730.12 77.0524 4713.1 77.0524C4706.05 77.0524 4699.55 74.6822 4694.36 70.6974C4711.99 89.1844 4753.44 81.2697 4758.14 49.3074C4763.72 11.384 4729.96 -5.45615 4701.11 1.55438C4665.84 10.1278 4650.5 48.7519 4622.19 55.5816C4640.88 53.7701 4646.62 49.2428 4665.98 34.3886Z" fill="#C60038"/>
<path d="M689.774 46.1233C677.784 55.3264 665.374 65.5048 642.647 65.085C625.632 64.7718 611.834 51.29 611.834 34.2722C611.834 17.2545 625.629 3.45625 642.647 3.45625C649.699 3.45625 656.197 5.82647 661.389 9.81126C643.761 -8.67574 602.311 -0.757815 597.61 31.2045C592.033 69.1311 625.794 85.968 654.637 78.9575C689.912 70.3841 705.251 31.7599 733.555 24.9302C714.871 26.7418 709.126 31.2691 689.774 46.1233Z" fill="#1D2345"/>
<path d="M685.976 34.3886C697.966 25.1854 710.376 15.0071 733.103 15.4269C750.117 15.7401 763.916 29.2219 763.916 46.2397C763.916 63.2574 750.121 77.0524 733.103 77.0524C726.05 77.0524 719.553 74.6822 714.361 70.6974C731.989 89.1844 773.439 81.2697 778.14 49.3074C783.717 11.384 749.956 -5.45615 721.113 1.55438C685.838 10.1278 670.499 48.7519 642.195 55.5816C660.879 53.7701 666.624 49.2428 685.976 34.3886Z" fill="#C60038"/>
<path d="M6858.77 46.1233C6846.78 55.3264 6834.37 65.5048 6811.65 65.085C6794.63 64.7718 6780.83 51.29 6780.83 34.2722C6780.83 17.2545 6794.63 3.45625 6811.65 3.45625C6818.7 3.45625 6825.2 5.82647 6830.39 9.81126C6812.76 -8.67574 6771.31 -0.757815 6766.61 31.2045C6761.03 69.1311 6794.79 85.968 6823.64 78.9575C6858.91 70.3841 6874.25 31.7599 6902.55 24.9302C6883.87 26.7418 6878.13 31.2691 6858.77 46.1233Z" fill="#1D2345"/>
<path d="M6854.98 34.3886C6866.97 25.1854 6879.38 15.0071 6902.1 15.4269C6919.12 15.7401 6932.92 29.2219 6932.92 46.2397C6932.92 63.2574 6919.12 77.0524 6902.1 77.0524C6895.05 77.0524 6888.55 74.6822 6883.36 70.6974C6900.99 89.1844 6942.44 81.2697 6947.14 49.3074C6952.72 11.384 6918.96 -5.45615 6890.11 1.55438C6854.84 10.1278 6839.5 48.7519 6811.19 55.5816C6829.88 53.7701 6835.62 49.2428 6854.98 34.3886Z" fill="#C60038"/>
<path d="M2878.77 46.1233C2866.78 55.3264 2854.37 65.5048 2831.65 65.085C2814.63 64.7718 2800.83 51.29 2800.83 34.2722C2800.83 17.2545 2814.63 3.45625 2831.65 3.45625C2838.7 3.45625 2845.2 5.82647 2850.39 9.81126C2832.76 -8.67574 2791.31 -0.757815 2786.61 31.2045C2781.03 69.1311 2814.79 85.968 2843.64 78.9575C2878.91 70.3841 2894.25 31.7599 2922.55 24.9302C2903.87 26.7418 2898.13 31.2691 2878.77 46.1233Z" fill="#1D2345"/>
<path d="M2874.98 34.3886C2886.97 25.1854 2899.38 15.0071 2922.1 15.4269C2939.12 15.7401 2952.92 29.2219 2952.92 46.2397C2952.92 63.2574 2939.12 77.0524 2922.1 77.0524C2915.05 77.0524 2908.55 74.6822 2903.36 70.6974C2920.99 89.1844 2962.44 81.2697 2967.14 49.3074C2972.72 11.384 2938.96 -5.45615 2910.11 1.55438C2874.84 10.1278 2859.5 48.7519 2831.19 55.5816C2849.88 53.7701 2855.62 49.2428 2874.98 34.3886Z" fill="#C60038"/>
<path d="M4868.77 46.1233C4856.78 55.3264 4844.37 65.5048 4821.65 65.085C4804.63 64.7718 4790.83 51.29 4790.83 34.2722C4790.83 17.2545 4804.63 3.45625 4821.65 3.45625C4828.7 3.45625 4835.2 5.82647 4840.39 9.81126C4822.76 -8.67574 4781.31 -0.757815 4776.61 31.2045C4771.03 69.1311 4804.79 85.968 4833.64 78.9575C4868.91 70.3841 4884.25 31.7599 4912.55 24.9302C4893.87 26.7418 4888.13 31.2691 4868.77 46.1233Z" fill="#1D2345"/>
<path d="M4864.98 34.3886C4876.97 25.1854 4889.38 15.0071 4912.1 15.4269C4929.12 15.7401 4942.92 29.2219 4942.92 46.2397C4942.92 63.2574 4929.12 77.0524 4912.1 77.0524C4905.05 77.0524 4898.55 74.6822 4893.36 70.6974C4910.99 89.1844 4952.44 81.2697 4957.14 49.3074C4962.72 11.384 4928.96 -5.45615 4900.11 1.55438C4864.84 10.1278 4849.5 48.7519 4821.19 55.5816C4839.88 53.7701 4845.62 49.2428 4864.98 34.3886Z" fill="#C60038"/>
<path d="M888.774 46.1233C876.784 55.3264 864.374 65.5048 841.647 65.085C824.632 64.7718 810.834 51.29 810.834 34.2722C810.834 17.2545 824.629 3.45625 841.647 3.45625C848.699 3.45625 855.197 5.82647 860.389 9.81126C842.761 -8.67574 801.311 -0.757815 796.61 31.2045C791.033 69.1311 824.794 85.968 853.637 78.9575C888.912 70.3841 904.251 31.7599 932.555 24.9302C913.871 26.7418 908.126 31.2691 888.774 46.1233Z" fill="#1D2345"/>
<path d="M884.976 34.3886C896.966 25.1854 909.376 15.0071 932.103 15.4269C949.117 15.7401 962.916 29.2219 962.916 46.2397C962.916 63.2574 949.121 77.0524 932.103 77.0524C925.05 77.0524 918.553 74.6822 913.361 70.6974C930.989 89.1844 972.439 81.2697 977.14 49.3074C982.717 11.384 948.956 -5.45615 920.113 1.55438C884.838 10.1278 869.499 48.7519 841.195 55.5816C859.879 53.7701 865.624 49.2428 884.976 34.3886Z" fill="#C60038"/>
<path d="M7057.77 46.1233C7045.78 55.3264 7033.37 65.5048 7010.65 65.085C6993.63 64.7718 6979.83 51.29 6979.83 34.2722C6979.83 17.2545 6993.63 3.45625 7010.65 3.45625C7017.7 3.45625 7024.2 5.82647 7029.39 9.81126C7011.76 -8.67574 6970.31 -0.757815 6965.61 31.2045C6960.03 69.1311 6993.79 85.968 7022.64 78.9575C7057.91 70.3841 7073.25 31.7599 7101.55 24.9302C7082.87 26.7418 7077.13 31.2691 7057.77 46.1233Z" fill="#1D2345"/>
<path d="M7053.98 34.3886C7065.97 25.1854 7078.38 15.0071 7101.1 15.4269C7118.12 15.7401 7131.92 29.2219 7131.92 46.2397C7131.92 63.2574 7118.12 77.0524 7101.1 77.0524C7094.05 77.0524 7087.55 74.6822 7082.36 70.6974C7099.99 89.1844 7141.44 81.2697 7146.14 49.3074C7151.72 11.384 7117.96 -5.45615 7089.11 1.55438C7053.84 10.1278 7038.5 48.7519 7010.19 55.5816C7028.88 53.7701 7034.62 49.2428 7053.98 34.3886Z" fill="#C60038"/>
<path d="M3077.77 46.1233C3065.78 55.3264 3053.37 65.5048 3030.65 65.085C3013.63 64.7718 2999.83 51.29 2999.83 34.2722C2999.83 17.2545 3013.63 3.45625 3030.65 3.45625C3037.7 3.45625 3044.2 5.82647 3049.39 9.81126C3031.76 -8.67574 2990.31 -0.757815 2985.61 31.2045C2980.03 69.1311 3013.79 85.968 3042.64 78.9575C3077.91 70.3841 3093.25 31.7599 3121.55 24.9302C3102.87 26.7418 3097.13 31.2691 3077.77 46.1233Z" fill="#1D2345"/>
<path d="M3073.98 34.3886C3085.97 25.1854 3098.38 15.0071 3121.1 15.4269C3138.12 15.7401 3151.92 29.2219 3151.92 46.2397C3151.92 63.2574 3138.12 77.0524 3121.1 77.0524C3114.05 77.0524 3107.55 74.6822 3102.36 70.6974C3119.99 89.1844 3161.44 81.2697 3166.14 49.3074C3171.72 11.384 3137.96 -5.45615 3109.11 1.55438C3073.84 10.1278 3058.5 48.7519 3030.19 55.5816C3048.88 53.7701 3054.62 49.2428 3073.98 34.3886Z" fill="#C60038"/>
<path d="M5067.77 46.1233C5055.78 55.3264 5043.37 65.5048 5020.65 65.085C5003.63 64.7718 4989.83 51.29 4989.83 34.2722C4989.83 17.2545 5003.63 3.45625 5020.65 3.45625C5027.7 3.45625 5034.2 5.82647 5039.39 9.81126C5021.76 -8.67574 4980.31 -0.757815 4975.61 31.2045C4970.03 69.1311 5003.79 85.968 5032.64 78.9575C5067.91 70.3841 5083.25 31.7599 5111.55 24.9302C5092.87 26.7418 5087.13 31.2691 5067.77 46.1233Z" fill="#1D2345"/>
<path d="M5063.98 34.3886C5075.97 25.1854 5088.38 15.0071 5111.1 15.4269C5128.12 15.7401 5141.92 29.2219 5141.92 46.2397C5141.92 63.2574 5128.12 77.0524 5111.1 77.0524C5104.05 77.0524 5097.55 74.6822 5092.36 70.6974C5109.99 89.1844 5151.44 81.2697 5156.14 49.3074C5161.72 11.384 5127.96 -5.45615 5099.11 1.55438C5063.84 10.1278 5048.5 48.7519 5020.19 55.5816C5038.88 53.7701 5044.62 49.2428 5063.98 34.3886Z" fill="#C60038"/>
<path d="M1087.77 46.1233C1075.78 55.3264 1063.37 65.5048 1040.65 65.085C1023.63 64.7718 1009.83 51.29 1009.83 34.2722C1009.83 17.2545 1023.63 3.45625 1040.65 3.45625C1047.7 3.45625 1054.2 5.82647 1059.39 9.81126C1041.76 -8.67574 1000.31 -0.757815 995.61 31.2045C990.033 69.1311 1023.79 85.968 1052.64 78.9575C1087.91 70.3841 1103.25 31.7599 1131.55 24.9302C1112.87 26.7418 1107.13 31.2691 1087.77 46.1233Z" fill="#1D2345"/>
<path d="M1083.98 34.3886C1095.97 25.1854 1108.38 15.0071 1131.1 15.4269C1148.12 15.7401 1161.92 29.2219 1161.92 46.2397C1161.92 63.2574 1148.12 77.0524 1131.1 77.0524C1124.05 77.0524 1117.55 74.6822 1112.36 70.6974C1129.99 89.1844 1171.44 81.2697 1176.14 49.3074C1181.72 11.384 1147.96 -5.45615 1119.11 1.55438C1083.84 10.1278 1068.5 48.7519 1040.2 55.5816C1058.88 53.7701 1064.62 49.2428 1083.98 34.3886Z" fill="#C60038"/>
<path d="M7256.77 46.1233C7244.78 55.3264 7232.37 65.5048 7209.65 65.085C7192.63 64.7718 7178.83 51.29 7178.83 34.2722C7178.83 17.2545 7192.63 3.45625 7209.65 3.45625C7216.7 3.45625 7223.2 5.82647 7228.39 9.81126C7210.76 -8.67574 7169.31 -0.757815 7164.61 31.2045C7159.03 69.1311 7192.79 85.968 7221.64 78.9575C7256.91 70.3841 7272.25 31.7599 7300.55 24.9302C7281.87 26.7418 7276.13 31.2691 7256.77 46.1233Z" fill="#1D2345"/>
<path d="M7252.98 34.3886C7264.97 25.1854 7277.38 15.0071 7300.1 15.4269C7317.12 15.7401 7330.92 29.2219 7330.92 46.2397C7330.92 63.2574 7317.12 77.0524 7300.1 77.0524C7293.05 77.0524 7286.55 74.6822 7281.36 70.6974C7298.99 89.1844 7340.44 81.2697 7345.14 49.3074C7350.72 11.384 7316.96 -5.45615 7288.11 1.55438C7252.84 10.1278 7237.5 48.7519 7209.19 55.5816C7227.88 53.7701 7233.62 49.2428 7252.98 34.3886Z" fill="#C60038"/>
<path d="M3276.77 46.1233C3264.78 55.3264 3252.37 65.5048 3229.65 65.085C3212.63 64.7718 3198.83 51.29 3198.83 34.2722C3198.83 17.2545 3212.63 3.45625 3229.65 3.45625C3236.7 3.45625 3243.2 5.82647 3248.39 9.81126C3230.76 -8.67574 3189.31 -0.757815 3184.61 31.2045C3179.03 69.1311 3212.79 85.968 3241.64 78.9575C3276.91 70.3841 3292.25 31.7599 3320.55 24.9302C3301.87 26.7418 3296.13 31.2691 3276.77 46.1233Z" fill="#1D2345"/>
<path d="M3272.98 34.3886C3284.97 25.1854 3297.38 15.0071 3320.1 15.4269C3337.12 15.7401 3350.92 29.2219 3350.92 46.2397C3350.92 63.2574 3337.12 77.0524 3320.1 77.0524C3313.05 77.0524 3306.55 74.6822 3301.36 70.6974C3318.99 89.1844 3360.44 81.2697 3365.14 49.3074C3370.72 11.384 3336.96 -5.45615 3308.11 1.55438C3272.84 10.1278 3257.5 48.7519 3229.19 55.5816C3247.88 53.7701 3253.62 49.2428 3272.98 34.3886Z" fill="#C60038"/>
<path d="M5266.77 46.1233C5254.78 55.3264 5242.37 65.5048 5219.65 65.085C5202.63 64.7718 5188.83 51.29 5188.83 34.2722C5188.83 17.2545 5202.63 3.45625 5219.65 3.45625C5226.7 3.45625 5233.2 5.82647 5238.39 9.81126C5220.76 -8.67574 5179.31 -0.757815 5174.61 31.2045C5169.03 69.1311 5202.79 85.968 5231.64 78.9575C5266.91 70.3841 5282.25 31.7599 5310.55 24.9302C5291.87 26.7418 5286.13 31.2691 5266.77 46.1233Z" fill="#1D2345"/>
<path d="M5262.98 34.3886C5274.97 25.1854 5287.38 15.0071 5310.1 15.4269C5327.12 15.7401 5340.92 29.2219 5340.92 46.2397C5340.92 63.2574 5327.12 77.0524 5310.1 77.0524C5303.05 77.0524 5296.55 74.6822 5291.36 70.6974C5308.99 89.1844 5350.44 81.2697 5355.14 49.3074C5360.72 11.384 5326.96 -5.45615 5298.11 1.55438C5262.84 10.1278 5247.5 48.7519 5219.19 55.5816C5237.88 53.7701 5243.62 49.2428 5262.98 34.3886Z" fill="#C60038"/>
<path d="M1286.77 46.1233C1274.78 55.3264 1262.37 65.5048 1239.65 65.085C1222.63 64.7718 1208.83 51.29 1208.83 34.2722C1208.83 17.2545 1222.63 3.45625 1239.65 3.45625C1246.7 3.45625 1253.2 5.82647 1258.39 9.81126C1240.76 -8.67574 1199.31 -0.757815 1194.61 31.2045C1189.03 69.1311 1222.79 85.968 1251.64 78.9575C1286.91 70.3841 1302.25 31.7599 1330.55 24.9302C1311.87 26.7418 1306.13 31.2691 1286.77 46.1233Z" fill="#1D2345"/>
<path d="M1282.98 34.3886C1294.97 25.1854 1307.38 15.0071 1330.1 15.4269C1347.12 15.7401 1360.92 29.2219 1360.92 46.2397C1360.92 63.2574 1347.12 77.0524 1330.1 77.0524C1323.05 77.0524 1316.55 74.6822 1311.36 70.6974C1328.99 89.1844 1370.44 81.2697 1375.14 49.3074C1380.72 11.384 1346.96 -5.45615 1318.11 1.55438C1282.84 10.1278 1267.5 48.7519 1239.2 55.5816C1257.88 53.7701 1263.62 49.2428 1282.98 34.3886Z" fill="#C60038"/>
<path d="M7455.77 46.1233C7443.78 55.3264 7431.37 65.5048 7408.65 65.085C7391.63 64.7718 7377.83 51.29 7377.83 34.2722C7377.83 17.2545 7391.63 3.45625 7408.65 3.45625C7415.7 3.45625 7422.2 5.82647 7427.39 9.81126C7409.76 -8.67574 7368.31 -0.757815 7363.61 31.2045C7358.03 69.1311 7391.79 85.968 7420.64 78.9575C7455.91 70.3841 7471.25 31.7599 7499.55 24.9302C7480.87 26.7418 7475.13 31.2691 7455.77 46.1233Z" fill="#1D2345"/>
<path d="M7451.98 34.3886C7463.97 25.1854 7476.38 15.0071 7499.1 15.4269C7516.12 15.7401 7529.92 29.2219 7529.92 46.2397C7529.92 63.2574 7516.12 77.0524 7499.1 77.0524C7492.05 77.0524 7485.55 74.6822 7480.36 70.6974C7497.99 89.1844 7539.44 81.2697 7544.14 49.3074C7549.72 11.384 7515.96 -5.45615 7487.11 1.55438C7451.84 10.1278 7436.5 48.7519 7408.19 55.5816C7426.88 53.7701 7432.62 49.2428 7451.98 34.3886Z" fill="#C60038"/>
<path d="M3475.77 46.1233C3463.78 55.3264 3451.37 65.5048 3428.65 65.085C3411.63 64.7718 3397.83 51.29 3397.83 34.2722C3397.83 17.2545 3411.63 3.45625 3428.65 3.45625C3435.7 3.45625 3442.2 5.82647 3447.39 9.81126C3429.76 -8.67574 3388.31 -0.757815 3383.61 31.2045C3378.03 69.1311 3411.79 85.968 3440.64 78.9575C3475.91 70.3841 3491.25 31.7599 3519.55 24.9302C3500.87 26.7418 3495.13 31.2691 3475.77 46.1233Z" fill="#1D2345"/>
<path d="M3471.98 34.3886C3483.97 25.1854 3496.38 15.0071 3519.1 15.4269C3536.12 15.7401 3549.92 29.2219 3549.92 46.2397C3549.92 63.2574 3536.12 77.0524 3519.1 77.0524C3512.05 77.0524 3505.55 74.6822 3500.36 70.6974C3517.99 89.1844 3559.44 81.2697 3564.14 49.3074C3569.72 11.384 3535.96 -5.45615 3507.11 1.55438C3471.84 10.1278 3456.5 48.7519 3428.19 55.5816C3446.88 53.7701 3452.62 49.2428 3471.98 34.3886Z" fill="#C60038"/>
<path d="M5465.77 46.1233C5453.78 55.3264 5441.37 65.5048 5418.65 65.085C5401.63 64.7718 5387.83 51.29 5387.83 34.2722C5387.83 17.2545 5401.63 3.45625 5418.65 3.45625C5425.7 3.45625 5432.2 5.82647 5437.39 9.81126C5419.76 -8.67574 5378.31 -0.757815 5373.61 31.2045C5368.03 69.1311 5401.79 85.968 5430.64 78.9575C5465.91 70.3841 5481.25 31.7599 5509.55 24.9302C5490.87 26.7418 5485.13 31.2691 5465.77 46.1233Z" fill="#1D2345"/>
<path d="M5461.98 34.3886C5473.97 25.1854 5486.38 15.0071 5509.1 15.4269C5526.12 15.7401 5539.92 29.2219 5539.92 46.2397C5539.92 63.2574 5526.12 77.0524 5509.1 77.0524C5502.05 77.0524 5495.55 74.6822 5490.36 70.6974C5507.99 89.1844 5549.44 81.2697 5554.14 49.3074C5559.72 11.384 5525.96 -5.45615 5497.11 1.55438C5461.84 10.1278 5446.5 48.7519 5418.19 55.5816C5436.88 53.7701 5442.62 49.2428 5461.98 34.3886Z" fill="#C60038"/>
<path d="M1485.77 46.1233C1473.78 55.3264 1461.37 65.5048 1438.65 65.085C1421.63 64.7718 1407.83 51.29 1407.83 34.2722C1407.83 17.2545 1421.63 3.45625 1438.65 3.45625C1445.7 3.45625 1452.2 5.82647 1457.39 9.81126C1439.76 -8.67574 1398.31 -0.757815 1393.61 31.2045C1388.03 69.1311 1421.79 85.968 1450.64 78.9575C1485.91 70.3841 1501.25 31.7599 1529.55 24.9302C1510.87 26.7418 1505.13 31.2691 1485.77 46.1233Z" fill="#1D2345"/>
<path d="M1481.98 34.3886C1493.97 25.1854 1506.38 15.0071 1529.1 15.4269C1546.12 15.7401 1559.92 29.2219 1559.92 46.2397C1559.92 63.2574 1546.12 77.0524 1529.1 77.0524C1522.05 77.0524 1515.55 74.6822 1510.36 70.6974C1527.99 89.1844 1569.44 81.2697 1574.14 49.3074C1579.72 11.384 1545.96 -5.45615 1517.11 1.55438C1481.84 10.1278 1466.5 48.7519 1438.2 55.5816C1456.88 53.7701 1462.62 49.2428 1481.98 34.3886Z" fill="#C60038"/>
<path d="M7654.77 46.1233C7642.78 55.3264 7630.37 65.5048 7607.65 65.085C7590.63 64.7718 7576.83 51.29 7576.83 34.2722C7576.83 17.2545 7590.63 3.45625 7607.65 3.45625C7614.7 3.45625 7621.2 5.82647 7626.39 9.81126C7608.76 -8.67574 7567.31 -0.757815 7562.61 31.2045C7557.03 69.1311 7590.79 85.968 7619.64 78.9575C7654.91 70.3841 7670.25 31.7599 7698.55 24.9302C7679.87 26.7418 7674.13 31.2691 7654.77 46.1233Z" fill="#1D2345"/>
<path d="M7650.98 34.3886C7662.97 25.1854 7675.38 15.0071 7698.1 15.4269C7715.12 15.7401 7728.92 29.2219 7728.92 46.2397C7728.92 63.2574 7715.12 77.0524 7698.1 77.0524C7691.05 77.0524 7684.55 74.6822 7679.36 70.6974C7696.99 89.1844 7738.44 81.2697 7743.14 49.3074C7748.72 11.384 7714.96 -5.45615 7686.11 1.55438C7650.84 10.1278 7635.5 48.7519 7607.19 55.5816C7625.88 53.7701 7631.62 49.2428 7650.98 34.3886Z" fill="#C60038"/>
<path d="M3674.77 46.1233C3662.78 55.3264 3650.37 65.5048 3627.65 65.085C3610.63 64.7718 3596.83 51.29 3596.83 34.2722C3596.83 17.2545 3610.63 3.45625 3627.65 3.45625C3634.7 3.45625 3641.2 5.82647 3646.39 9.81126C3628.76 -8.67574 3587.31 -0.757815 3582.61 31.2045C3577.03 69.1311 3610.79 85.968 3639.64 78.9575C3674.91 70.3841 3690.25 31.7599 3718.55 24.9302C3699.87 26.7418 3694.13 31.2691 3674.77 46.1233Z" fill="#1D2345"/>
<path d="M3670.98 34.3886C3682.97 25.1854 3695.38 15.0071 3718.1 15.4269C3735.12 15.7401 3748.92 29.2219 3748.92 46.2397C3748.92 63.2574 3735.12 77.0524 3718.1 77.0524C3711.05 77.0524 3704.55 74.6822 3699.36 70.6974C3716.99 89.1844 3758.44 81.2697 3763.14 49.3074C3768.72 11.384 3734.96 -5.45615 3706.11 1.55438C3670.84 10.1278 3655.5 48.7519 3627.19 55.5816C3645.88 53.7701 3651.62 49.2428 3670.98 34.3886Z" fill="#C60038"/>
<path d="M5664.77 46.1233C5652.78 55.3264 5640.37 65.5048 5617.65 65.085C5600.63 64.7718 5586.83 51.29 5586.83 34.2722C5586.83 17.2545 5600.63 3.45625 5617.65 3.45625C5624.7 3.45625 5631.2 5.82647 5636.39 9.81126C5618.76 -8.67574 5577.31 -0.757815 5572.61 31.2045C5567.03 69.1311 5600.79 85.968 5629.64 78.9575C5664.91 70.3841 5680.25 31.7599 5708.55 24.9302C5689.87 26.7418 5684.13 31.2691 5664.77 46.1233Z" fill="#1D2345"/>
<path d="M5660.98 34.3886C5672.97 25.1854 5685.38 15.0071 5708.1 15.4269C5725.12 15.7401 5738.92 29.2219 5738.92 46.2397C5738.92 63.2574 5725.12 77.0524 5708.1 77.0524C5701.05 77.0524 5694.55 74.6822 5689.36 70.6974C5706.99 89.1844 5748.44 81.2697 5753.14 49.3074C5758.72 11.384 5724.96 -5.45615 5696.11 1.55438C5660.84 10.1278 5645.5 48.7519 5617.19 55.5816C5635.88 53.7701 5641.62 49.2428 5660.98 34.3886Z" fill="#C60038"/>
<path d="M1684.77 46.1233C1672.78 55.3264 1660.37 65.5048 1637.65 65.085C1620.63 64.7718 1606.83 51.29 1606.83 34.2722C1606.83 17.2545 1620.63 3.45625 1637.65 3.45625C1644.7 3.45625 1651.2 5.82647 1656.39 9.81126C1638.76 -8.67574 1597.31 -0.757815 1592.61 31.2045C1587.03 69.1311 1620.79 85.968 1649.64 78.9575C1684.91 70.3841 1700.25 31.7599 1728.55 24.9302C1709.87 26.7418 1704.13 31.2691 1684.77 46.1233Z" fill="#1D2345"/>
<path d="M1680.98 34.3886C1692.97 25.1854 1705.38 15.0071 1728.1 15.4269C1745.12 15.7401 1758.92 29.2219 1758.92 46.2397C1758.92 63.2574 1745.12 77.0524 1728.1 77.0524C1721.05 77.0524 1714.55 74.6822 1709.36 70.6974C1726.99 89.1844 1768.44 81.2697 1773.14 49.3074C1778.72 11.384 1744.96 -5.45615 1716.11 1.55438C1680.84 10.1278 1665.5 48.7519 1637.19 55.5816C1655.88 53.7701 1661.62 49.2428 1680.98 34.3886Z" fill="#C60038"/>
<path d="M7853.77 46.1233C7841.78 55.3264 7829.37 65.5048 7806.65 65.085C7789.63 64.7718 7775.83 51.29 7775.83 34.2722C7775.83 17.2545 7789.63 3.45625 7806.65 3.45625C7813.7 3.45625 7820.2 5.82647 7825.39 9.81126C7807.76 -8.67574 7766.31 -0.757815 7761.61 31.2045C7756.03 69.1311 7789.79 85.968 7818.64 78.9575C7853.91 70.3841 7869.25 31.7599 7897.55 24.9302C7878.87 26.7418 7873.13 31.2691 7853.77 46.1233Z" fill="#1D2345"/>
<path d="M7849.98 34.3886C7861.97 25.1854 7874.38 15.0071 7897.1 15.4269C7914.12 15.7401 7927.92 29.2219 7927.92 46.2397C7927.92 63.2574 7914.12 77.0524 7897.1 77.0524C7890.05 77.0524 7883.55 74.6822 7878.36 70.6974C7895.99 89.1844 7937.44 81.2697 7942.14 49.3074C7947.72 11.384 7913.96 -5.45615 7885.11 1.55438C7849.84 10.1278 7834.5 48.7519 7806.19 55.5816C7824.88 53.7701 7830.62 49.2428 7849.98 34.3886Z" fill="#C60038"/>
<path d="M3873.77 46.1233C3861.78 55.3264 3849.37 65.5048 3826.65 65.085C3809.63 64.7718 3795.83 51.29 3795.83 34.2722C3795.83 17.2545 3809.63 3.45625 3826.65 3.45625C3833.7 3.45625 3840.2 5.82647 3845.39 9.81126C3827.76 -8.67574 3786.31 -0.757815 3781.61 31.2045C3776.03 69.1311 3809.79 85.968 3838.64 78.9575C3873.91 70.3841 3889.25 31.7599 3917.55 24.9302C3898.87 26.7418 3893.13 31.2691 3873.77 46.1233Z" fill="#1D2345"/>
<path d="M3869.98 34.3886C3881.97 25.1854 3894.38 15.0071 3917.1 15.4269C3934.12 15.7401 3947.92 29.2219 3947.92 46.2397C3947.92 63.2574 3934.12 77.0524 3917.1 77.0524C3910.05 77.0524 3903.55 74.6822 3898.36 70.6974C3915.99 89.1844 3957.44 81.2697 3962.14 49.3074C3967.72 11.384 3933.96 -5.45615 3905.11 1.55438C3869.84 10.1278 3854.5 48.7519 3826.19 55.5816C3844.88 53.7701 3850.62 49.2428 3869.98 34.3886Z" fill="#C60038"/>
<path d="M5863.77 46.1233C5851.78 55.3264 5839.37 65.5048 5816.65 65.085C5799.63 64.7718 5785.83 51.29 5785.83 34.2722C5785.83 17.2545 5799.63 3.45625 5816.65 3.45625C5823.7 3.45625 5830.2 5.82647 5835.39 9.81126C5817.76 -8.67574 5776.31 -0.757815 5771.61 31.2045C5766.03 69.1311 5799.79 85.968 5828.64 78.9575C5863.91 70.3841 5879.25 31.7599 5907.55 24.9302C5888.87 26.7418 5883.13 31.2691 5863.77 46.1233Z" fill="#1D2345"/>
<path d="M5859.98 34.3886C5871.97 25.1854 5884.38 15.0071 5907.1 15.4269C5924.12 15.7401 5937.92 29.2219 5937.92 46.2397C5937.92 63.2574 5924.12 77.0524 5907.1 77.0524C5900.05 77.0524 5893.55 74.6822 5888.36 70.6974C5905.99 89.1844 5947.44 81.2697 5952.14 49.3074C5957.72 11.384 5923.96 -5.45615 5895.11 1.55438C5859.84 10.1278 5844.5 48.7519 5816.19 55.5816C5834.88 53.7701 5840.62 49.2428 5859.98 34.3886Z" fill="#C60038"/>
<path d="M1883.77 46.1233C1871.78 55.3264 1859.37 65.5048 1836.65 65.085C1819.63 64.7718 1805.83 51.29 1805.83 34.2722C1805.83 17.2545 1819.63 3.45625 1836.65 3.45625C1843.7 3.45625 1850.2 5.82647 1855.39 9.81126C1837.76 -8.67574 1796.31 -0.757815 1791.61 31.2045C1786.03 69.1311 1819.79 85.968 1848.64 78.9575C1883.91 70.3841 1899.25 31.7599 1927.55 24.9302C1908.87 26.7418 1903.13 31.2691 1883.77 46.1233Z" fill="#1D2345"/>
<path d="M1879.98 34.3886C1891.97 25.1854 1904.38 15.0071 1927.1 15.4269C1944.12 15.7401 1957.92 29.2219 1957.92 46.2397C1957.92 63.2574 1944.12 77.0524 1927.1 77.0524C1920.05 77.0524 1913.55 74.6822 1908.36 70.6974C1925.99 89.1844 1967.44 81.2697 1972.14 49.3074C1977.72 11.384 1943.96 -5.45615 1915.11 1.55438C1879.84 10.1278 1864.5 48.7519 1836.19 55.5816C1854.88 53.7701 1860.62 49.2428 1879.98 34.3886Z" fill="#C60038"/>
<path d="M9644.77 46.1233C9632.78 55.3264 9620.37 65.5048 9597.65 65.085C9580.63 64.7718 9566.83 51.29 9566.83 34.2722C9566.83 17.2545 9580.63 3.45625 9597.65 3.45625C9604.7 3.45625 9611.2 5.82647 9616.39 9.81126C9598.76 -8.67574 9557.31 -0.757815 9552.61 31.2045C9547.03 69.1311 9580.79 85.968 9609.64 78.9575C9644.91 70.3841 9660.25 31.7599 9688.55 24.9302C9669.87 26.7418 9664.13 31.2691 9644.77 46.1233Z" fill="#1D2345"/>
<path d="M9640.98 34.3886C9652.97 25.1854 9665.38 15.0071 9688.1 15.4269C9705.12 15.7401 9718.92 29.2219 9718.92 46.2397C9718.92 63.2574 9705.12 77.0524 9688.1 77.0524C9681.05 77.0524 9674.55 74.6822 9669.36 70.6974C9686.99 89.1844 9728.44 81.2697 9733.14 49.3074C9738.72 11.384 9704.96 -5.45615 9676.11 1.55438C9640.84 10.1278 9625.5 48.7519 9597.19 55.5816C9615.88 53.7701 9621.62 49.2428 9640.98 34.3886Z" fill="#C60038"/>
<path d="M8052.77 46.1233C8040.78 55.3264 8028.37 65.5048 8005.65 65.085C7988.63 64.7718 7974.83 51.29 7974.83 34.2722C7974.83 17.2545 7988.63 3.45625 8005.65 3.45625C8012.7 3.45625 8019.2 5.82647 8024.39 9.81126C8006.76 -8.67574 7965.31 -0.757815 7960.61 31.2045C7955.03 69.1311 7988.79 85.968 8017.64 78.9575C8052.91 70.3841 8068.25 31.7599 8096.55 24.9302C8077.87 26.7418 8072.13 31.2691 8052.77 46.1233Z" fill="#1D2345"/>
<path d="M8048.98 34.3886C8060.97 25.1854 8073.38 15.0071 8096.1 15.4269C8113.12 15.7401 8126.92 29.2219 8126.92 46.2397C8126.92 63.2574 8113.12 77.0524 8096.1 77.0524C8089.05 77.0524 8082.55 74.6822 8077.36 70.6974C8094.99 89.1844 8136.44 81.2697 8141.14 49.3074C8146.72 11.384 8112.96 -5.45615 8084.11 1.55438C8048.84 10.1278 8033.5 48.7519 8005.19 55.5816C8023.88 53.7701 8029.62 49.2428 8048.98 34.3886Z" fill="#C60038"/>
<path d="M9843.77 46.1233C9831.78 55.3264 9819.37 65.5048 9796.65 65.085C9779.63 64.7718 9765.83 51.29 9765.83 34.2722C9765.83 17.2545 9779.63 3.45625 9796.65 3.45625C9803.7 3.45625 9810.2 5.82647 9815.39 9.81126C9797.76 -8.67574 9756.31 -0.757815 9751.61 31.2045C9746.03 69.1311 9779.79 85.968 9808.64 78.9575C9843.91 70.3841 9859.25 31.7599 9887.55 24.9302C9868.87 26.7418 9863.13 31.2691 9843.77 46.1233Z" fill="#1D2345"/>
<path d="M9839.98 34.3886C9851.97 25.1854 9864.38 15.0071 9887.1 15.4269C9904.12 15.7401 9917.92 29.2219 9917.92 46.2397C9917.92 63.2574 9904.12 77.0524 9887.1 77.0524C9880.05 77.0524 9873.55 74.6822 9868.36 70.6974C9885.99 89.1844 9927.44 81.2697 9932.14 49.3074C9937.72 11.384 9903.96 -5.45615 9875.11 1.55438C9839.84 10.1278 9824.5 48.7519 9796.19 55.5816C9814.88 53.7701 9820.62 49.2428 9839.98 34.3886Z" fill="#C60038"/>
<path d="M8251.77 46.1233C8239.78 55.3264 8227.37 65.5048 8204.65 65.085C8187.63 64.7718 8173.83 51.29 8173.83 34.2722C8173.83 17.2545 8187.63 3.45625 8204.65 3.45625C8211.7 3.45625 8218.2 5.82647 8223.39 9.81126C8205.76 -8.67574 8164.31 -0.757815 8159.61 31.2045C8154.03 69.1311 8187.79 85.968 8216.64 78.9575C8251.91 70.3841 8267.25 31.7599 8295.55 24.9302C8276.87 26.7418 8271.13 31.2691 8251.77 46.1233Z" fill="#1D2345"/>
<path d="M8247.98 34.3886C8259.97 25.1854 8272.38 15.0071 8295.1 15.4269C8312.12 15.7401 8325.92 29.2219 8325.92 46.2397C8325.92 63.2574 8312.12 77.0524 8295.1 77.0524C8288.05 77.0524 8281.55 74.6822 8276.36 70.6974C8293.99 89.1844 8335.44 81.2697 8340.14 49.3074C8345.72 11.384 8311.96 -5.45615 8283.11 1.55438C8247.84 10.1278 8232.5 48.7519 8204.19 55.5816C8222.88 53.7701 8228.62 49.2428 8247.98 34.3886Z" fill="#C60038"/>
<path d="M10042.8 46.1233C10030.8 55.3264 10018.4 65.5048 9995.65 65.085C9978.63 64.7718 9964.83 51.29 9964.83 34.2722C9964.83 17.2545 9978.63 3.45625 9995.65 3.45625C10002.7 3.45625 10009.2 5.82647 10014.4 9.81126C9996.76 -8.67574 9955.31 -0.757815 9950.61 31.2045C9945.03 69.1311 9978.79 85.968 10007.6 78.9575C10042.9 70.3841 10058.3 31.7599 10086.6 24.9302C10067.9 26.7418 10062.1 31.2691 10042.8 46.1233Z" fill="#1D2345"/>
<path d="M10039 34.3886C10051 25.1854 10063.4 15.0071 10086.1 15.4269C10103.1 15.7401 10116.9 29.2219 10116.9 46.2397C10116.9 63.2574 10103.1 77.0524 10086.1 77.0524C10079.1 77.0524 10072.6 74.6822 10067.4 70.6974C10085 89.1844 10126.4 81.2697 10131.1 49.3074C10136.7 11.384 10103 -5.45615 10074.1 1.55438C10038.8 10.1278 10023.5 48.7519 9995.19 55.5816C10013.9 53.7701 10019.6 49.2428 10039 34.3886Z" fill="#C60038"/>
<path d="M8450.77 46.1233C8438.78 55.3264 8426.37 65.5048 8403.65 65.085C8386.63 64.7718 8372.83 51.29 8372.83 34.2722C8372.83 17.2545 8386.63 3.45625 8403.65 3.45625C8410.7 3.45625 8417.2 5.82647 8422.39 9.81126C8404.76 -8.67574 8363.31 -0.757815 8358.61 31.2045C8353.03 69.1311 8386.79 85.968 8415.64 78.9575C8450.91 70.3841 8466.25 31.7599 8494.55 24.9302C8475.87 26.7418 8470.13 31.2691 8450.77 46.1233Z" fill="#1D2345"/>
<path d="M8446.98 34.3886C8458.97 25.1854 8471.38 15.0071 8494.1 15.4269C8511.12 15.7401 8524.92 29.2219 8524.92 46.2397C8524.92 63.2574 8511.12 77.0524 8494.1 77.0524C8487.05 77.0524 8480.55 74.6822 8475.36 70.6974C8492.99 89.1844 8534.44 81.2697 8539.14 49.3074C8544.72 11.384 8510.96 -5.45615 8482.11 1.55438C8446.84 10.1278 8431.5 48.7519 8403.19 55.5816C8421.88 53.7701 8427.62 49.2428 8446.98 34.3886Z" fill="#C60038"/>
<path d="M10241.8 46.1233C10229.8 55.3264 10217.4 65.5048 10194.6 65.085C10177.6 64.7718 10163.8 51.29 10163.8 34.2722C10163.8 17.2545 10177.6 3.45625 10194.6 3.45625C10201.7 3.45625 10208.2 5.82647 10213.4 9.81126C10195.8 -8.67574 10154.3 -0.757815 10149.6 31.2045C10144 69.1311 10177.8 85.968 10206.6 78.9575C10241.9 70.3841 10257.3 31.7599 10285.6 24.9302C10266.9 26.7418 10261.1 31.2691 10241.8 46.1233Z" fill="#1D2345"/>
<path d="M10238 34.3886C10250 25.1854 10262.4 15.0071 10285.1 15.4269C10302.1 15.7401 10315.9 29.2219 10315.9 46.2397C10315.9 63.2574 10302.1 77.0524 10285.1 77.0524C10278.1 77.0524 10271.6 74.6822 10266.4 70.6974C10284 89.1844 10325.4 81.2697 10330.1 49.3074C10335.7 11.384 10302 -5.45615 10273.1 1.55438C10237.8 10.1278 10222.5 48.7519 10194.2 55.5816C10212.9 53.7701 10218.6 49.2428 10238 34.3886Z" fill="#C60038"/>
<path d="M8649.77 46.1233C8637.78 55.3264 8625.37 65.5048 8602.65 65.085C8585.63 64.7718 8571.83 51.29 8571.83 34.2722C8571.83 17.2545 8585.63 3.45625 8602.65 3.45625C8609.7 3.45625 8616.2 5.82647 8621.39 9.81126C8603.76 -8.67574 8562.31 -0.757815 8557.61 31.2045C8552.03 69.1311 8585.79 85.968 8614.64 78.9575C8649.91 70.3841 8665.25 31.7599 8693.55 24.9302C8674.87 26.7418 8669.13 31.2691 8649.77 46.1233Z" fill="#1D2345"/>
<path d="M8645.98 34.3886C8657.97 25.1854 8670.38 15.0071 8693.1 15.4269C8710.12 15.7401 8723.92 29.2219 8723.92 46.2397C8723.92 63.2574 8710.12 77.0524 8693.1 77.0524C8686.05 77.0524 8679.55 74.6822 8674.36 70.6974C8691.99 89.1844 8733.44 81.2697 8738.14 49.3074C8743.72 11.384 8709.96 -5.45615 8681.11 1.55438C8645.84 10.1278 8630.5 48.7519 8602.19 55.5816C8620.88 53.7701 8626.62 49.2428 8645.98 34.3886Z" fill="#C60038"/>
<path d="M10440.8 46.1233C10428.8 55.3264 10416.4 65.5048 10393.6 65.085C10376.6 64.7718 10362.8 51.29 10362.8 34.2722C10362.8 17.2545 10376.6 3.45625 10393.6 3.45625C10400.7 3.45625 10407.2 5.82647 10412.4 9.81126C10394.8 -8.67574 10353.3 -0.757815 10348.6 31.2045C10343 69.1311 10376.8 85.968 10405.6 78.9575C10440.9 70.3841 10456.3 31.7599 10484.6 24.9302C10465.9 26.7418 10460.1 31.2691 10440.8 46.1233Z" fill="#1D2345"/>
<path d="M10437 34.3886C10449 25.1854 10461.4 15.0071 10484.1 15.4269C10501.1 15.7401 10514.9 29.2219 10514.9 46.2397C10514.9 63.2574 10501.1 77.0524 10484.1 77.0524C10477.1 77.0524 10470.6 74.6822 10465.4 70.6974C10483 89.1844 10524.4 81.2697 10529.1 49.3074C10534.7 11.384 10501 -5.45615 10472.1 1.55438C10436.8 10.1278 10421.5 48.7519 10393.2 55.5816C10411.9 53.7701 10417.6 49.2428 10437 34.3886Z" fill="#C60038"/>
<path d="M8848.77 46.1233C8836.78 55.3264 8824.37 65.5048 8801.65 65.085C8784.63 64.7718 8770.83 51.29 8770.83 34.2722C8770.83 17.2545 8784.63 3.45625 8801.65 3.45625C8808.7 3.45625 8815.2 5.82647 8820.39 9.81126C8802.76 -8.67574 8761.31 -0.757815 8756.61 31.2045C8751.03 69.1311 8784.79 85.968 8813.64 78.9575C8848.91 70.3841 8864.25 31.7599 8892.55 24.9302C8873.87 26.7418 8868.13 31.2691 8848.77 46.1233Z" fill="#1D2345"/>
<path d="M8844.98 34.3886C8856.97 25.1854 8869.38 15.0071 8892.1 15.4269C8909.12 15.7401 8922.92 29.2219 8922.92 46.2397C8922.92 63.2574 8909.12 77.0524 8892.1 77.0524C8885.05 77.0524 8878.55 74.6822 8873.36 70.6974C8890.99 89.1844 8932.44 81.2697 8937.14 49.3074C8942.72 11.384 8908.96 -5.45615 8880.11 1.55438C8844.84 10.1278 8829.5 48.7519 8801.19 55.5816C8819.88 53.7701 8825.62 49.2428 8844.98 34.3886Z" fill="#C60038"/>
<path d="M10639.8 46.1233C10627.8 55.3264 10615.4 65.5048 10592.6 65.085C10575.6 64.7718 10561.8 51.29 10561.8 34.2722C10561.8 17.2545 10575.6 3.45625 10592.6 3.45625C10599.7 3.45625 10606.2 5.82647 10611.4 9.81126C10593.8 -8.67574 10552.3 -0.757815 10547.6 31.2045C10542 69.1311 10575.8 85.968 10604.6 78.9575C10639.9 70.3841 10655.3 31.7599 10683.6 24.9302C10664.9 26.7418 10659.1 31.2691 10639.8 46.1233Z" fill="#1D2345"/>
<path d="M10636 34.3886C10648 25.1854 10660.4 15.0071 10683.1 15.4269C10700.1 15.7401 10713.9 29.2219 10713.9 46.2397C10713.9 63.2574 10700.1 77.0524 10683.1 77.0524C10676.1 77.0524 10669.6 74.6822 10664.4 70.6974C10682 89.1844 10723.4 81.2697 10728.1 49.3074C10733.7 11.384 10700 -5.45615 10671.1 1.55438C10635.8 10.1278 10620.5 48.7519 10592.2 55.5816C10610.9 53.7701 10616.6 49.2428 10636 34.3886Z" fill="#C60038"/>
<path d="M9047.77 46.1233C9035.78 55.3264 9023.37 65.5048 9000.65 65.085C8983.63 64.7718 8969.83 51.29 8969.83 34.2722C8969.83 17.2545 8983.63 3.45625 9000.65 3.45625C9007.7 3.45625 9014.2 5.82647 9019.39 9.81126C9001.76 -8.67574 8960.31 -0.757815 8955.61 31.2045C8950.03 69.1311 8983.79 85.968 9012.64 78.9575C9047.91 70.3841 9063.25 31.7599 9091.55 24.9302C9072.87 26.7418 9067.13 31.2691 9047.77 46.1233Z" fill="#1D2345"/>
<path d="M9043.98 34.3886C9055.97 25.1854 9068.38 15.0071 9091.1 15.4269C9108.12 15.7401 9121.92 29.2219 9121.92 46.2397C9121.92 63.2574 9108.12 77.0524 9091.1 77.0524C9084.05 77.0524 9077.55 74.6822 9072.36 70.6974C9089.99 89.1844 9131.44 81.2697 9136.14 49.3074C9141.72 11.384 9107.96 -5.45615 9079.11 1.55438C9043.84 10.1278 9028.5 48.7519 9000.19 55.5816C9018.88 53.7701 9024.62 49.2428 9043.98 34.3886Z" fill="#C60038"/>
<path d="M10838.8 46.1233C10826.8 55.3264 10814.4 65.5048 10791.6 65.085C10774.6 64.7718 10760.8 51.29 10760.8 34.2722C10760.8 17.2545 10774.6 3.45625 10791.6 3.45625C10798.7 3.45625 10805.2 5.82647 10810.4 9.81126C10792.8 -8.67574 10751.3 -0.757815 10746.6 31.2045C10741 69.1311 10774.8 85.968 10803.6 78.9575C10838.9 70.3841 10854.3 31.7599 10882.6 24.9302C10863.9 26.7418 10858.1 31.2691 10838.8 46.1233Z" fill="#1D2345"/>
<path d="M10835 34.3886C10847 25.1854 10859.4 15.0071 10882.1 15.4269C10899.1 15.7401 10912.9 29.2219 10912.9 46.2397C10912.9 63.2574 10899.1 77.0524 10882.1 77.0524C10875.1 77.0524 10868.6 74.6822 10863.4 70.6974C10881 89.1844 10922.4 81.2697 10927.1 49.3074C10932.7 11.384 10899 -5.45615 10870.1 1.55438C10834.8 10.1278 10819.5 48.7519 10791.2 55.5816C10809.9 53.7701 10815.6 49.2428 10835 34.3886Z" fill="#C60038"/>
<path d="M9246.77 46.1233C9234.78 55.3264 9222.37 65.5048 9199.65 65.085C9182.63 64.7718 9168.83 51.29 9168.83 34.2722C9168.83 17.2545 9182.63 3.45625 9199.65 3.45625C9206.7 3.45625 9213.2 5.82647 9218.39 9.81126C9200.76 -8.67574 9159.31 -0.757815 9154.61 31.2045C9149.03 69.1311 9182.79 85.968 9211.64 78.9575C9246.91 70.3841 9262.25 31.7599 9290.55 24.9302C9271.87 26.7418 9266.13 31.2691 9246.77 46.1233Z" fill="#1D2345"/>
<path d="M9242.98 34.3886C9254.97 25.1854 9267.38 15.0071 9290.1 15.4269C9307.12 15.7401 9320.92 29.2219 9320.92 46.2397C9320.92 63.2574 9307.12 77.0524 9290.1 77.0524C9283.05 77.0524 9276.55 74.6822 9271.36 70.6974C9288.99 89.1844 9330.44 81.2697 9335.14 49.3074C9340.72 11.384 9306.96 -5.45615 9278.11 1.55438C9242.84 10.1278 9227.5 48.7519 9199.19 55.5816C9217.88 53.7701 9223.62 49.2428 9242.98 34.3886Z" fill="#C60038"/>
<path d="M11037.8 46.1233C11025.8 55.3264 11013.4 65.5048 10990.6 65.085C10973.6 64.7718 10959.8 51.29 10959.8 34.2722C10959.8 17.2545 10973.6 3.45625 10990.6 3.45625C10997.7 3.45625 11004.2 5.82647 11009.4 9.81126C10991.8 -8.67574 10950.3 -0.757815 10945.6 31.2045C10940 69.1311 10973.8 85.968 11002.6 78.9575C11037.9 70.3841 11053.3 31.7599 11081.6 24.9302C11062.9 26.7418 11057.1 31.2691 11037.8 46.1233Z" fill="#1D2345"/>
<path d="M11034 34.3886C11046 25.1854 11058.4 15.0071 11081.1 15.4269C11098.1 15.7401 11111.9 29.2219 11111.9 46.2397C11111.9 63.2574 11098.1 77.0524 11081.1 77.0524C11074.1 77.0524 11067.6 74.6822 11062.4 70.6974C11080 89.1844 11121.4 81.2697 11126.1 49.3074C11131.7 11.384 11098 -5.45615 11069.1 1.55438C11033.8 10.1278 11018.5 48.7519 10990.2 55.5816C11008.9 53.7701 11014.6 49.2428 11034 34.3886Z" fill="#C60038"/>
<path d="M9445.77 46.1233C9433.78 55.3264 9421.37 65.5048 9398.65 65.085C9381.63 64.7718 9367.83 51.29 9367.83 34.2722C9367.83 17.2545 9381.63 3.45625 9398.65 3.45625C9405.7 3.45625 9412.2 5.82647 9417.39 9.81126C9399.76 -8.67574 9358.31 -0.757815 9353.61 31.2045C9348.03 69.1311 9381.79 85.968 9410.64 78.9575C9445.91 70.3841 9461.25 31.7599 9489.55 24.9302C9470.87 26.7418 9465.13 31.2691 9445.77 46.1233Z" fill="#1D2345"/>
<path d="M9441.98 34.3886C9453.97 25.1854 9466.38 15.0071 9489.1 15.4269C9506.12 15.7401 9519.92 29.2219 9519.92 46.2397C9519.92 63.2574 9506.12 77.0524 9489.1 77.0524C9482.05 77.0524 9475.55 74.6822 9470.36 70.6974C9487.99 89.1844 9529.44 81.2697 9534.14 49.3074C9539.72 11.384 9505.96 -5.45615 9477.11 1.55438C9441.84 10.1278 9426.5 48.7519 9398.19 55.5816C9416.88 53.7701 9422.62 49.2428 9441.98 34.3886Z" fill="#C60038"/>
<path d="M11236.8 46.1233C11224.8 55.3264 11212.4 65.5048 11189.6 65.085C11172.6 64.7718 11158.8 51.29 11158.8 34.2722C11158.8 17.2545 11172.6 3.45625 11189.6 3.45625C11196.7 3.45625 11203.2 5.82647 11208.4 9.81126C11190.8 -8.67574 11149.3 -0.757815 11144.6 31.2045C11139 69.1311 11172.8 85.968 11201.6 78.9575C11236.9 70.3841 11252.3 31.7599 11280.6 24.9302C11261.9 26.7418 11256.1 31.2691 11236.8 46.1233Z" fill="#1D2345"/>
<path d="M11233 34.3886C11245 25.1854 11257.4 15.0071 11280.1 15.4269C11297.1 15.7401 11310.9 29.2219 11310.9 46.2397C11310.9 63.2574 11297.1 77.0524 11280.1 77.0524C11273.1 77.0524 11266.6 74.6822 11261.4 70.6974C11279 89.1844 11320.4 81.2697 11325.1 49.3074C11330.7 11.384 11297 -5.45615 11268.1 1.55438C11232.8 10.1278 11217.5 48.7519 11189.2 55.5816C11207.9 53.7701 11213.6 49.2428 11233 34.3886Z" fill="#C60038"/>
</svg>
