<?xml version="1.0" encoding="utf-8"?>
<!-- Generator: Adobe Illustrator 24.0.0, SVG Export Plug-In . SVG Version: 6.00 Build 0)  -->
<svg version="1.1" id="Layer_1" xmlns="http://www.w3.org/2000/svg" xmlns:xlink="http://www.w3.org/1999/xlink" x="0px" y="0px"
	 viewBox="0 0 1500 695.17" style="enable-background:new 0 0 1500 695.17;" xml:space="preserve">
<style type="text/css">
	.st0{fill:#1D2345;}
	.st1{fill:#C60038;}
</style>
<g>
	<path id="XMLID_31_" class="st0" d="M765.36,397.9c-96.99,74.44-197.37,156.77-381.21,153.39
		C246.52,548.75,134.9,439.69,134.9,302.03c0-137.66,111.59-249.25,249.25-249.25c57.04,0,109.6,19.18,151.6,51.41
		C393.17-45.34,57.88,18.68,19.86,277.22C-25.25,583.99,247.84,720.2,481.15,663.5c285.34-69.35,409.41-381.76,638.36-437.03
		C968.37,241.13,921.91,277.76,765.36,397.9z"/>
	<path id="XMLID_21_" class="st1" d="M734.64,303c96.99-74.44,197.37-156.77,381.21-153.39c137.63,2.53,249.25,111.59,249.25,249.25
		s-111.59,249.25-249.25,249.25c-57.04,0-109.6-19.18-151.6-51.41c142.58,149.53,477.88,85.51,515.9-173.03
		C1525.25,116.9,1252.16-19.3,1018.85,37.4C733.51,106.75,609.45,419.16,380.5,474.43C531.63,459.77,578.09,423.14,734.64,303z"/>
</g>
</svg>
