<svg width="564" height="250" viewBox="0 0 564 250" fill="none" xmlns="http://www.w3.org/2000/svg">
<path d="M288.02 142.834C250.89 171.334 212.46 202.854 142.08 201.554C89.3899 200.584 46.6599 158.834 46.6599 106.134C46.6599 53.4336 89.3799 10.7036 142.08 10.7036C163.92 10.7036 184.04 18.0436 200.12 30.3836C145.53 -26.8664 17.1699 -2.34641 2.6099 96.6336C-14.6601 214.084 89.8899 266.224 179.21 244.514C288.45 217.964 335.95 98.3536 423.6 77.2036C365.74 82.8136 347.95 96.8336 288.02 142.834Z" fill="white"/>
<path d="M276.26 106.494C313.39 77.9935 351.82 46.4735 422.2 47.7735C474.89 48.7435 517.62 90.4936 517.62 143.194C517.62 195.894 474.9 238.614 422.2 238.614C400.36 238.614 380.24 231.274 364.16 218.934C418.75 276.184 547.11 251.674 561.67 152.694C578.94 35.2536 474.39 -16.8965 385.07 4.81355C275.83 31.3635 228.33 150.974 140.68 172.124C198.54 166.514 216.33 152.494 276.26 106.494Z" fill="white"/>
</svg>
