<svg width="2121" height="250" viewBox="0 0 2121 250" fill="none" xmlns="http://www.w3.org/2000/svg">
<path d="M288.02 142.834C250.89 171.334 212.46 202.854 142.08 201.554C89.3899 200.584 46.6599 158.834 46.6599 106.134C46.6599 53.4335 89.3799 10.7035 142.08 10.7035C163.92 10.7035 184.04 18.0435 200.12 30.3835C145.53 -26.8665 17.1699 -2.34647 2.6099 96.6335C-14.6601 214.084 89.8899 266.224 179.21 244.514C288.45 217.964 335.95 98.3535 423.6 77.2035C365.74 82.8135 347.95 96.8335 288.02 142.834Z" fill="#1D2345"/>
<path d="M276.26 106.494C313.39 77.9935 351.82 46.4735 422.2 47.7735C474.89 48.7435 517.62 90.4936 517.62 143.194C517.62 195.894 474.9 238.614 422.2 238.614C400.36 238.614 380.24 231.274 364.16 218.934C418.75 276.184 547.11 251.674 561.67 152.694C578.94 35.2536 474.39 -16.8965 385.07 4.81355C275.83 31.3635 228.33 150.974 140.68 172.124C198.54 166.514 216.33 152.494 276.26 106.494Z" fill="#C60038"/>
<path d="M748.79 171.78V69.69H686V52H832.49V69.69H771.41V171.78H748.79Z" fill="#1D2345"/>
<path d="M847.63 171.78V52H970.81V69.69H870.26V99.64H965.71V117.33H870.26V154.08H970.81V171.77H847.63V171.78Z" fill="#1D2345"/>
<path d="M1103.18 198.32L1088.72 171.78H1026.79C999.57 171.78 989.19 160.04 989.19 142.86V80.92C989.19 63.74 999.57 52 1026.79 52H1105.91C1133.13 52 1143.51 63.74 1143.51 80.92V142.85C1143.51 158.67 1134.66 169.9 1112.03 171.6L1127.34 198.31H1103.18V198.32ZM1120.88 80.75C1120.88 73.6 1116.12 69.69 1105.91 69.69H1026.79C1016.58 69.69 1011.82 73.6 1011.82 80.75V143.02C1011.82 150.17 1016.58 154.08 1026.79 154.08H1105.91C1116.12 154.08 1120.88 150.17 1120.88 143.02V80.75Z" fill="#1D2345"/>
<path d="M1165.62 171.78V52H1188.25V171.78H1165.62Z" fill="#C60038"/>
<path d="M1358.73 171.78L1230.95 78.54V171.78H1211.21V52H1230.78L1350.05 140.98V52H1369.79V171.78H1358.73Z" fill="#C60038"/>
<path d="M1414.54 122.44V171.78H1391.91V52H1515.09V69.69H1414.54V104.74H1508.29V122.43H1414.54V122.44Z" fill="#C60038"/>
<path d="M1528.19 171.78V52H1550.82V171.78H1528.19Z" fill="#C60038"/>
<path d="M1721.3 171.78L1593.52 78.54V171.78H1573.78V52H1593.35L1712.62 140.98V52H1732.36V171.78H1721.3Z" fill="#C60038"/>
<path d="M1755.33 171.78V52H1777.96V171.78H1755.33Z" fill="#C60038"/>
<path d="M1856.56 171.78V69.69H1793.78V52H1940.27V69.69H1879.19V171.78H1856.56Z" fill="#C60038"/>
<path d="M2021.26 171.78V123.12L1944.36 52H1973.28L2032.49 106.79L2091.7 52H2120.28L2043.89 123.12V171.78H2021.26Z" fill="#C60038"/>
</svg>
