<?xml version="1.0" encoding="utf-8"?>
<!-- Generator: Adobe Illustrator 24.0.0, SVG Export Plug-In . SVG Version: 6.00 Build 0)  -->
<svg version="1.1" id="Layer_1" xmlns="http://www.w3.org/2000/svg" xmlns:xlink="http://www.w3.org/1999/xlink" x="0px" y="0px"
	 viewBox="0 0 1500 526.34" style="enable-background:new 0 0 1500 526.34;" xml:space="preserve">
<style type="text/css">
	.st0{fill:#1D2345;}
	.st1{fill:#C60038;}
</style>
<g>
	<g>
		<path id="XMLID_31_" class="st0" d="M755.88,167.6c-37.13,28.5-75.56,60.02-145.94,58.72c-52.69-0.97-95.42-42.72-95.42-95.42
			s42.72-95.43,95.42-95.43c21.84,0,41.96,7.34,58.04,19.68C613.39-2.1,485.03,22.42,470.47,121.4
			c-17.27,117.45,87.28,169.59,176.6,147.88c109.24-26.55,156.74-146.16,244.39-167.31C833.6,107.58,815.81,121.6,755.88,167.6z"/>
		<path id="XMLID_21_" class="st1" d="M744.12,131.26c37.13-28.5,75.56-60.02,145.94-58.72c52.69,0.97,95.42,42.72,95.42,95.42
			s-42.72,95.42-95.42,95.42c-21.84,0-41.96-7.34-58.04-19.68c54.59,57.25,182.95,32.74,197.51-66.24
			C1046.8,60.02,942.25,7.87,852.93,29.58C743.69,56.13,696.19,175.74,608.54,196.89C666.4,191.28,684.19,177.26,744.12,131.26z"/>
	</g>
	<g>
		<g>
			<path class="st0" d="M95.65,480.76V378.67H32.86v-17.69h146.49v17.69h-61.08v102.09H95.65z"/>
			<path class="st0" d="M194.49,480.76V360.98h123.18v17.69H217.12v29.95h95.45v17.69h-95.45v36.75h100.55v17.69H194.49z"/>
			<path class="st0" d="M450.04,507.3l-14.46-26.54h-61.93c-27.22,0-37.6-11.74-37.6-28.92V389.9c0-17.18,10.38-28.92,37.6-28.92
				h79.12c27.22,0,37.6,11.74,37.6,28.92v61.93c0,15.82-8.85,27.05-31.48,28.75l15.31,26.71H450.04z M467.74,389.73
				c0-7.15-4.76-11.06-14.97-11.06h-79.12c-10.21,0-14.97,3.91-14.97,11.06V452c0,7.15,4.76,11.06,14.97,11.06h79.12
				c10.21,0,14.97-3.91,14.97-11.06V389.73z"/>
			<path class="st1" d="M512.48,480.76V360.98h22.63v119.78H512.48z"/>
			<path class="st1" d="M705.59,480.76l-127.78-93.24v93.24h-19.74V360.98h19.57l119.27,88.98v-88.98h19.74v119.78H705.59z"/>
			<path class="st1" d="M761.4,431.42v49.34h-22.63V360.98h123.18v17.69H761.4v35.05h93.75v17.69H761.4z"/>
			<path class="st1" d="M875.05,480.76V360.98h22.63v119.78H875.05z"/>
			<path class="st1" d="M1068.16,480.76l-127.78-93.24v93.24h-19.74V360.98h19.57l119.27,88.98v-88.98h19.74v119.78H1068.16z"/>
			<path class="st1" d="M1102.19,480.76V360.98h22.63v119.78H1102.19z"/>
			<path class="st1" d="M1203.42,480.76V378.67h-62.78v-17.69h146.49v17.69h-61.08v102.09H1203.42z"/>
			<path class="st1" d="M1368.12,480.76V432.1l-76.9-71.12h28.92l59.21,54.79l59.21-54.79h28.58l-76.39,71.12v48.66H1368.12z"/>
		</g>
	</g>
</g>
</svg>
